<svg width="33" height="33" viewBox="0 0 33 33" fill="none" xmlns="http://www.w3.org/2000/svg">
<path d="M11.9597 9.61692C11.9597 10.4936 11.2844 11.2039 10.451 11.2039C9.61759 11.2039 8.94234 10.4936 8.94234 9.61692C8.94234 8.74092 9.61759 8.02997 10.451 8.02997C11.2844 8.02997 11.9597 8.74092 11.9597 9.61692ZM11.9718 12.4734H8.93018V22.63H11.9718V12.4734ZM16.8276 12.4734H13.8054V22.63H16.8282V17.2984C16.8282 14.334 20.4958 14.0915 20.4958 17.2984V22.63H23.5302V16.199C23.5302 11.1969 18.1026 11.3791 16.8276 13.8414V12.4734Z" fill="#1F2128"/>
<rect x="0.534922" y="0.365" width="31.39" height="31.39" stroke="#1F2128" stroke-width="0.73"/>
</svg>
