<svg width="33" height="33" viewBox="0 0 33 33" fill="none" xmlns="http://www.w3.org/2000/svg">
<path d="M24.8705 11.0456C24.2797 11.3097 23.6446 11.4875 22.9781 11.5677C23.6587 11.1574 24.1813 10.5073 24.4269 9.73253C23.7905 10.1125 23.0852 10.3887 22.3344 10.5376C21.7342 9.89287 20.877 9.48999 19.9294 9.48999C17.8021 9.48999 16.239 11.4882 16.7194 13.5626C13.9819 13.4244 11.5541 12.104 9.92872 10.097C9.0655 11.5879 9.48105 13.5383 10.9479 14.526C10.4085 14.5084 9.89995 14.3596 9.45629 14.111C9.42016 15.6477 10.5142 17.0854 12.0988 17.4054C11.6351 17.532 11.1272 17.5617 10.6106 17.462C11.0295 18.7797 12.246 19.7384 13.6888 19.7654C12.3036 20.8588 10.5584 21.3472 8.81055 21.1397C10.2687 22.0809 12.0011 22.63 13.8614 22.63C19.9789 22.63 23.4352 17.4283 23.2264 12.7629C23.8701 12.2946 24.4289 11.7105 24.8705 11.0456V11.0456Z" fill="#1F2128"/>
</svg>
