<svg width="33" height="33" viewBox="0 0 33 33" fill="none" xmlns="http://www.w3.org/2000/svg">
<path d="M24.4799 11.0456C23.889 11.3097 23.254 11.4875 22.5875 11.5677C23.2681 11.1574 23.7907 10.5073 24.0363 9.73253C23.3999 10.1125 22.6946 10.3887 21.9438 10.5376C21.3435 9.89287 20.4863 9.48999 19.5388 9.48999C17.4115 9.48999 15.8483 11.4882 16.3288 13.5626C13.5912 13.4244 11.1635 12.104 9.5381 10.097C8.67487 11.5879 9.09043 13.5383 10.5572 14.526C10.0179 14.5084 9.50933 14.3596 9.06567 14.111C9.02953 15.6477 10.1236 17.0854 11.7082 17.4054C11.2445 17.532 10.7366 17.5617 10.22 17.462C10.6389 18.7797 11.8554 19.7384 13.2981 19.7654C11.913 20.8588 10.1678 21.3472 8.41992 21.1397C9.87804 22.0809 11.6105 22.63 13.4708 22.63C19.5883 22.63 23.0446 17.4283 22.8358 12.7629C23.4795 12.2946 24.0383 11.7105 24.4799 11.0456V11.0456Z" fill="#1F2128"/>
<rect x="0.754893" y="0.365" width="31.39" height="31.39" stroke="#1F2128" stroke-width="0.73"/>
</svg>
