<svg width="20" height="20" viewBox="0 0 20 20" fill="none" xmlns="http://www.w3.org/2000/svg">
<path d="M20 3.89418C19.2642 4.21575 18.4733 4.43232 17.6433 4.52994C18.4908 4.03035 19.1417 3.23872 19.4475 2.29532C18.655 2.758 17.7767 3.09434 16.8417 3.27564C16.0942 2.49057 15.0267 2 13.8467 2C11.1975 2 9.25083 4.43314 9.84917 6.95898C6.44 6.79081 3.41667 5.18294 1.3925 2.73913C0.3175 4.55455 0.835 6.92945 2.66167 8.13207C1.99 8.11075 1.35667 7.92945 0.804167 7.62674C0.759167 9.49795 2.12167 11.2486 4.095 11.6382C3.5175 11.7925 2.885 11.8285 2.24167 11.7071C2.76333 13.3117 4.27833 14.4791 6.075 14.5119C4.35 15.8433 2.17667 16.4381 0 16.1854C1.81583 17.3314 3.97333 18 6.29 18C13.9083 18 18.2125 11.6661 17.9525 5.98523C18.7542 5.41509 19.45 4.70386 20 3.89418V3.89418Z" fill="#1F2128"/>
</svg>
