<svg width="77" height="19" viewBox="0 0 77 19" fill="none" xmlns="http://www.w3.org/2000/svg">
<path fill-rule="evenodd" clip-rule="evenodd" d="M2.14462 0.206909H16.3159C17.5004 0.206909 18.4605 1.16975 18.4605 2.35747V18.7931H0V2.35747C0 1.16975 0.960171 0.206909 2.14462 0.206909ZM1.76297 2.90323V17.2432H5.68243L4.91547 15.9409C4.83708 15.8654 4.73259 15.8232 4.62388 15.8232H3.17909V3.62722H4.38297L11.3003 10.5638C11.3793 10.6429 11.4863 10.6874 11.5979 10.6874H13.1724L4.75486 2.20716H2.45711C2.07375 2.20716 1.76297 2.51881 1.76297 2.90323ZM13.7057 17.2432H16.6976V2.75623C16.6976 2.45298 16.4525 2.20716 16.1501 2.20716H12.7782L13.5704 3.53382C13.6326 3.59374 13.7155 3.62722 13.8018 3.62722H15.2815V15.8232H14.0777L7.16029 8.88665C7.08137 8.80752 6.97433 8.76304 6.86272 8.76304H5.28818L13.7057 17.2432ZM71.855 9.87595H65.5577V12.1873H69.0974C68.8709 13.1778 68.3359 13.8794 67.8009 14.2922C67.0394 14.87 66.0105 15.1176 65.105 15.1176C63.6437 15.1176 62.6765 14.5398 62.0592 13.9413C61.483 13.3842 60.701 12.2905 60.701 10.4538C60.701 8.90602 61.2977 7.58527 62.0798 6.82173C62.9236 5.99621 64.1584 5.60416 65.249 5.60416C65.8871 5.60416 66.6072 5.74861 67.1834 6.03759C67.6156 6.26453 68.3153 6.73922 68.7887 7.66779L71.1141 6.40896C70.3939 5.17084 69.4267 4.34535 68.5418 3.89135C67.4921 3.33417 66.4015 3.16903 65.3724 3.16903C62.7177 3.16903 60.989 4.22151 59.96 5.27404C59.1368 6.09941 57.9434 7.72973 57.9434 10.3919C57.9434 13.4874 59.5073 15.2208 59.9806 15.6954C61.483 17.202 63.2529 17.5528 64.9608 17.5528C66.6689 17.5528 68.4182 17.1607 69.8383 15.7368C71.7316 13.8588 71.855 10.9697 71.855 10.0411V9.87595ZM23.4108 12.1254V3.4786H20.7354V11.8983C20.7354 13.1985 20.9413 14.5192 21.7645 15.5716C22.7523 16.8717 24.481 17.5528 26.2508 17.5528C28.0207 17.5528 29.7492 16.8717 30.7372 15.5716C31.5604 14.5192 31.7661 13.1985 31.7661 11.8983V3.4786H29.0907V12.1254C29.0907 13.1778 28.7408 13.8175 28.4323 14.1684C28.0413 14.643 27.3209 15.1176 26.2508 15.1176C25.1806 15.1176 24.4604 14.643 24.0694 14.1684C23.7607 13.8175 23.4108 13.1778 23.4108 12.1254ZM38.6809 3.47862H36.7463L34.1944 17.2432H36.911L38.3104 8.76159L41.8293 17.2432H42.735L46.4187 8.76159L47.6535 17.2432H50.37L48.0651 3.47862H46.1305L42.3234 12.2286L38.6809 3.47862ZM55.4738 3.47862V17.2432H52.7984V3.47862H55.4738ZM77 3.47862V17.2432H74.3247V3.47862H77Z" fill="#1F2128"/>
</svg>
